<svg t="1679366707602" class="icon" viewBox="0 0 1024 1024" version="1.1" xmlns="http://www.w3.org/2000/svg" p-id="7551"
  width="30" height="30">
  <path
    d="M514 912c-219.9 0-398.8-178.9-398.8-398.9 0-219.9 178.9-398.8 398.8-398.8s398.8 178.9 398.8 398.8c0 220-178.9 398.9-398.8 398.9z m0-701.5c-166.9 0-302.7 135.8-302.7 302.7S347.1 815.9 514 815.9s302.7-135.8 302.7-302.7S680.9 210.5 514 210.5z"
    fill="#BDD2EF" p-id="7552"></path>
  <path
    d="M402.5 677.3c0-15 5.7-30.1 17.2-41.5l122.6-122.6-122.6-122.6c-22.9-22.9-22.9-60.2 0-83.1 22.9-22.9 60.2-22.9 83.1 0l164.1 164.1c22.9 22.9 22.9 60.2 0 83.1L502.8 718.8c-22.9 22.9-60.2 22.9-83.1 0-11.5-11.4-17.2-26.5-17.2-41.5z"
    fill="#2867CE" p-id="7553"></path>
</svg>