<svg t="1679458974300" class="icon" viewBox="0 0 1024 1024" version="1.1" xmlns="http://www.w3.org/2000/svg" p-id="1590"
  width="30" height="30">
  <path
    d="M567.466667 634.325333v234.666667a21.333333 21.333333 0 0 1-21.333334 21.333333h-42.666666a21.333333 21.333333 0 0 1-21.333334-21.333333v-234.666667H413.866667a8.533333 8.533333 0 0 1-6.826667-13.653333l110.933333-147.925333a8.533333 8.533333 0 0 1 13.653334 0l110.933333 147.925333a8.533333 8.533333 0 0 1-6.826667 13.653333h-68.266666z"
    fill="#ffffff" p-id="1591"></path>
  <path
    d="M768 725.333333a128 128 0 0 0 38.613333-250.112l-39.850666-12.586666-14.506667-39.253334a256.128 256.128 0 0 0-480.554667 0l-14.464 39.253334-39.850666 12.586666A128.085333 128.085333 0 0 0 256 725.333333a42.666667 42.666667 0 0 1 0 85.333334 213.333333 213.333333 0 0 1-64.341333-416.810667 341.461333 341.461333 0 0 1 640.682666 0A213.418667 213.418667 0 0 1 768 810.666667a42.666667 42.666667 0 0 1 0-85.333334z"
    fill="#ffffff" p-id="1592"></path>
</svg>